<svg class="svg-icon" style="width: 1em; height: 1em;vertical-align: middle;fill: currentColor;overflow: hidden;" viewBox="0 0 1024 1024" version="1.1" xmlns="http://www.w3.org/2000/svg"><path d="M981.333333 149.333333H725.333333V42.666667a42.666667 42.666667 0 0 0-42.666666-42.666667H341.333333a42.666667 42.666667 0 0 0-42.666666 42.666667v106.666666H42.666667a42.666667 42.666667 0 0 0-42.666667 42.666667v490.666667a42.666667 42.666667 0 0 0 42.666667 42.666666h21.333333v256a42.666667 42.666667 0 0 0 42.666667 42.666667h810.666666a42.666667 42.666667 0 0 0 42.666667-42.666667V725.333333h21.333333a42.666667 42.666667 0 0 0 42.666667-42.666666V192a42.666667 42.666667 0 0 0-42.666667-42.666667zM384 85.333333h256v64H384zM85.333333 234.666667h853.333334v405.333333H640v-32a32 32 0 0 0-32-32h-192a32 32 0 0 0-32 32V640H85.333333z m490.666667 405.333333v85.333333h-128v-85.333333z m298.666667 298.666667H149.333333V725.333333h234.666667v32a32 32 0 0 0 32 32h192a32 32 0 0 0 32-32V725.333333h234.666667z" fill="#3A3A3A" /></svg>